<svg width="438" height="620" viewBox="0 0 438 620" fill="none" xmlns="http://www.w3.org/2000/svg">
<path d="M119.909 589.288C162.279 631.746 295.235 625.956 320.073 589.288L320.799 588.562C309.351 396.081 437 363.299 437 218.885C437 98.5503 339.398 1 219 1C98.6019 1 1 98.5503 1 218.885C1 363.296 130.807 396.08 119.171 588.551L119.909 589.288Z" stroke="#FDFBF3" stroke-linejoin="round"/>
<path d="M219.994 618.514V352.101M219.994 353.091C219.994 326.351 266.567 230.284 296.294 260.986C326.021 291.687 219.994 379.832 219.994 353.091ZM218.499 350.273C214.823 332.142 170.563 273.295 154.96 298.126C139.356 322.957 222.174 368.404 218.499 350.273Z" stroke="#FDFBF3" stroke-linejoin="round"/>
</svg>
