<svg width="42" height="402" viewBox="0 0 42 402" fill="none" xmlns="http://www.w3.org/2000/svg">
<path d="M21 361C26.5228 361 31 356.523 31 351C31 345.477 26.5228 341 21 341M21 361C15.4772 361 11 356.523 11 351C11 345.477 15.4772 341 21 341M21 361C9.9543 361 1 369.954 1 381C1 392.046 9.9543 401 21 401C32.0457 401 41 392.046 41 381C41 369.954 32.0457 361 21 361ZM21 341C26.5228 341 31 336.523 31 331C31 325.477 26.5228 321 21 321M21 341C15.4772 341 11 336.523 11 331C11 325.477 15.4772 321 21 321M21 321C26.5228 321 31 316.523 31 311C31 305.477 26.5228 301 21 301M21 321C15.4772 321 11 316.523 11 311C11 305.477 15.4772 301 21 301M21 301C26.5228 301 31 296.523 31 291C31 285.477 26.5228 281 21 281M21 301C15.4772 301 11 296.523 11 291C11 285.477 15.4772 281 21 281M21 281C26.5228 281 31 276.523 31 271C31 265.477 26.5228 261 21 261M21 281C15.4772 281 11 276.523 11 271C11 265.477 15.4772 261 21 261M21 261C26.5228 261 31 256.523 31 251C31 245.477 26.5228 241 21 241M21 261C15.4772 261 11 256.523 11 251C11 245.477 15.4772 241 21 241M21 241C26.5228 241 31 236.523 31 231C31 225.477 26.5228 221 21 221M21 241C15.4772 241 11 236.523 11 231C11 225.477 15.4772 221 21 221M21 221C26.5228 221 31 216.523 31 211C31 205.477 26.5228 201 21 201M21 221C15.4772 221 11 216.523 11 211C11 205.477 15.4772 201 21 201M21 201C26.5228 201 31 196.523 31 191C31 185.477 26.5228 181 21 181M21 201C15.4772 201 11 196.523 11 191C11 185.477 15.4772 181 21 181M21 181C26.5228 181 31 176.523 31 171C31 165.477 26.5228 161 21 161M21 181C15.4772 181 11 176.523 11 171C11 165.477 15.4772 161 21 161M21 161C26.5228 161 31 156.523 31 151C31 145.477 26.5228 141 21 141M21 161C15.4772 161 11 156.523 11 151C11 145.477 15.4772 141 21 141M21 141C26.5228 141 31 136.523 31 131C31 125.477 26.5228 121 21 121M21 141C15.4772 141 11 136.523 11 131C11 125.477 15.4772 121 21 121M21 121C26.5228 121 31 116.523 31 111C31 105.477 26.5228 101 21 101M21 121C15.4772 121 11 116.523 11 111C11 105.477 15.4772 101 21 101M21 101C26.5228 101 31 96.5228 31 91C31 85.4772 26.5228 81 21 81M21 101C15.4772 101 11 96.5228 11 91C11 85.4772 15.4772 81 21 81M21 81C26.5228 81 31 76.5228 31 71C31 65.4772 26.5228 61 21 61M21 81C15.4772 81 11 76.5228 11 71C11 65.4772 15.4772 61 21 61M21 61C26.5228 61 31 56.5228 31 51C31 45.4772 26.5228 41 21 41M21 61C15.4772 61 11 56.5228 11 51C11 45.4772 15.4772 41 21 41M21 41C26.5228 41 31 36.5228 31 31C31 25.4772 26.5228 21 21 21M21 41C15.4772 41 11 36.5228 11 31C11 25.4772 15.4772 21 21 21M21 21C26.5228 21 31 16.5228 31 11C31 5.47715 26.5228 1 21 1C15.4772 1 11 5.47715 11 11C11 16.5228 15.4772 21 21 21Z" stroke="#FDFBF3" stroke-linejoin="round"/>
</svg>
